<?xml version="1.0" encoding="UTF-8" standalone="no"?>
<svg
   width="2.342731in"
   height="0.97942382in"
   viewBox="0 0 59.505369 24.877364"
   version="1.1"
   id="svg8"
   inkscape:version="1.2.2 (b0a8486541, 2022-12-01)"
   sodipodi:docname="logo.svg"
   xml:space="preserve"
   xmlns:inkscape="http://www.inkscape.org/namespaces/inkscape"
   xmlns:sodipodi="http://sodipodi.sourceforge.net/DTD/sodipodi-0.dtd"
   xmlns="http://www.w3.org/2000/svg"
   xmlns:svg="http://www.w3.org/2000/svg"
   xmlns:rdf="http://www.w3.org/1999/02/22-rdf-syntax-ns#"
   xmlns:cc="http://creativecommons.org/ns#"
   xmlns:dc="http://purl.org/dc/elements/1.1/"><defs
     id="defs2" /><sodipodi:namedview
     id="base"
     pagecolor="#212121"
     bordercolor="#666666"
     borderopacity="1.0"
     inkscape:pageopacity="0.0"
     inkscape:pageshadow="2"
     inkscape:zoom="3.6203869"
     inkscape:cx="51.237618"
     inkscape:cy="38.117473"
     inkscape:document-units="mm"
     inkscape:current-layer="layer1"
     inkscape:document-rotation="0"
     showgrid="false"
     inkscape:snap-page="true"
     inkscape:snap-text-baseline="true"
     inkscape:snap-object-midpoints="true"
     inkscape:snap-midpoints="true"
     inkscape:snap-smooth-nodes="true"
     inkscape:snap-intersection-paths="true"
     inkscape:object-paths="true"
     inkscape:snap-bbox="true"
     inkscape:bbox-paths="true"
     inkscape:bbox-nodes="true"
     inkscape:snap-bbox-edge-midpoints="true"
     inkscape:snap-bbox-midpoints="true"
     inkscape:snap-center="true"
     inkscape:window-width="1910"
     inkscape:window-height="1045"
     inkscape:window-x="0"
     inkscape:window-y="0"
     inkscape:window-maximized="1"
     showguides="true"
     inkscape:guide-bbox="true"
     inkscape:snap-global="true"
     units="in"
     inkscape:showpageshadow="0"
     inkscape:pagecheckerboard="0"
     inkscape:deskcolor="#d1d1d1" /><metadata
     id="metadata5"><rdf:RDF><cc:Work
         rdf:about=""><dc:format>image/svg+xml</dc:format><dc:type
           rdf:resource="http://purl.org/dc/dcmitype/StillImage" /></cc:Work></rdf:RDF></metadata><g
     inkscape:label="Base Layer"
     inkscape:groupmode="layer"
     id="layer1"
     style="display:inline;opacity:1"
     transform="translate(-99.66479,-134.46704)"><path
       style="color:#000000;fill:none;fill-opacity:1;stroke:#ffffff;stroke-width:1.2;stroke-linecap:round;stroke-linejoin:round;stroke-dasharray:none;stroke-opacity:1"
       d="m 103.49097,150.71287 c 0,2.8064 1.98671,4.02873 3.66559,4.02873 3.45648,0 4.54429,-5.47375 0.13207,-7.31283 9.37765,1.37866 6.8502,11.31564 -0.40778,11.31564 -4.02747,0 -6.61606,-2.02984 -6.61606,-7.63716 0,-5.01259 3.67979,-7.04452 3.55901,-10.00115 -0.0988,-2.41841 -0.93138,-4.17474 -2.51556,-6.03925 2.47988,1.54749 4.39829,3.58225 4.39829,6.55557 0,3.41292 -2.21556,4.48598 -2.21556,9.09045 z"
       id="path9" /><path
       style="color:#000000;fill:#ff1a39;fill-opacity:1;stroke:none;stroke-width:0.574238;stroke-linecap:round;stroke-linejoin:round;stroke-dasharray:none;stroke-opacity:1"
       d="m 103.49097,150.71287 c 0,2.8064 1.98671,4.02873 3.66559,4.02873 3.45648,0 4.54429,-5.47375 0.13207,-7.31283 9.37765,1.37866 6.8502,11.31564 -0.40778,11.31564 -4.02747,0 -6.61606,-2.02984 -6.61606,-7.63716 0,-5.01259 3.67979,-7.04452 3.55901,-10.00115 -0.0988,-2.41841 -0.93138,-4.17474 -2.51556,-6.03925 2.47988,1.54749 4.39829,3.58225 4.39829,6.55557 0,3.41292 -2.21556,4.48598 -2.21556,9.09045 z"
       id="path6" /><path
       style="color:#000000;fill:#f20d2c;fill-opacity:1;stroke:none;stroke-width:0.574238;stroke-linecap:round;stroke-linejoin:round;stroke-dasharray:none;stroke-opacity:1"
       d="m 106.87606,157.1689 c 3.38506,0 8.93885,-6.19468 0.41265,-9.74013 9.37765,1.37866 6.85019,11.31564 -0.40778,11.31564 -4.02747,0 -6.61607,-2.02984 -6.61607,-7.63716 0,-5.01259 3.6798,-7.04452 3.55901,-10.00115 -0.0987,-2.41841 -0.89638,-4.05235 -2.51555,-6.03925 2.22024,1.98024 3.62399,3.51441 3.62399,6.48773 0,2.96789 -2.97015,4.77846 -2.97015,9.69068 0,3.90944 2.00784,5.92364 4.9139,5.92364 z"
       id="path8"
       sodipodi:nodetypes="scssscsss" /><path
       style="color:#000000;fill:#d1102b;fill-opacity:1;stroke:none;stroke-width:0.574238;stroke-linecap:round;stroke-linejoin:round;stroke-dasharray:none;stroke-opacity:1"
       d="m 106.91316,157.71294 c 4.22585,0 9.55964,-7.21618 0.37555,-10.28417 9.37765,1.37866 6.85019,11.31564 -0.40778,11.31564 -4.02747,0 -6.61607,-2.02984 -6.61607,-7.63716 0,-5.01259 3.6798,-7.04452 3.55901,-10.00115 -0.0987,-2.41841 -0.93137,-4.17474 -2.51555,-6.03925 1.97294,1.84422 3.24423,3.40737 3.24423,6.38069 0,3.41292 -3.28708,4.62377 -3.28713,9.90564 -4e-5,4.19385 2.18528,6.35976 5.64774,6.35976 z"
       id="path4"
       sodipodi:nodetypes="scssscsss" /><path
       style="color:#000000;fill:#b50e25;fill-opacity:1;stroke:none;stroke-width:0.574238;stroke-linecap:round;stroke-linejoin:round;stroke-dasharray:none;stroke-opacity:1"
       d="m 106.87606,158.14568 c 5.47463,0 9.56943,-8.11114 0.41265,-10.71691 9.37765,1.37866 6.85019,11.31564 -0.40778,11.31564 -4.02747,0 -6.61607,-2.02984 -6.61607,-7.63716 0,-5.01259 3.6798,-7.04452 3.55901,-10.00115 -0.0987,-2.41841 -0.89638,-4.05235 -2.51555,-6.03925 1.97294,1.84422 2.94696,3.40737 2.94696,6.38069 0,3.05445 -3.41827,4.8855 -3.41827,9.74826 0,4.19385 1.84708,6.94988 6.03905,6.94988 z"
       id="path7"
       sodipodi:nodetypes="scssscsss" /><path
       style="color:#000000;fill:none;fill-opacity:1;stroke:#000000;stroke-width:0.574238;stroke-linecap:round;stroke-linejoin:round;stroke-dasharray:none;stroke-opacity:1"
       d="m 103.49097,150.71287 c 0,2.8064 1.98671,4.02873 3.66559,4.02873 3.45648,0 4.54429,-5.47375 0.13207,-7.31283 9.37765,1.37866 6.8502,11.31564 -0.40778,11.31564 -4.02747,0 -6.61606,-2.02984 -6.61606,-7.63716 0,-5.01259 3.67979,-7.04452 3.55901,-10.00115 -0.0988,-2.41841 -0.93138,-4.17474 -2.51556,-6.03925 2.47988,1.54749 4.39829,3.58225 4.39829,6.55557 0,3.41292 -2.21556,4.48598 -2.21556,9.09045 z"
       id="path5" /><text
       xml:space="preserve"
       style="font-size:10.046px;line-height:1.25;font-family:Arial;-inkscape-font-specification:Arial;letter-spacing:-0.403638px;word-spacing:0px;stroke-width:0.269091"
       x="116.21482"
       y="151.06927"
       id="text9"><tspan
         sodipodi:role="line"
         id="tspan9"
         style="font-style:normal;font-variant:normal;font-weight:bold;font-stretch:normal;font-family:Arial;-inkscape-font-specification:'Arial Bold';letter-spacing:-0.403638px;stroke-width:0.269091"
         x="116.21482"
         y="151.06927"><tspan
           style="fill:#f2f2f2;fill-opacity:1"
           id="tspan3553">bayside</tspan><tspan
           style="fill:#f20d2c;fill-opacity:1"
           id="tspan1">ts</tspan></tspan></text></g></svg>
