<?xml version="1.0" encoding="UTF-8" standalone="no"?>
<svg
   width="2.342731in"
   height="0.97942382in"
   viewBox="0 0 59.505369 24.877364"
   version="1.1"
   id="svg8"
   inkscape:version="1.3.2 (091e20e, 2023-11-25, custom)"
   sodipodi:docname="logo.svg"
   xml:space="preserve"
   xmlns:inkscape="http://www.inkscape.org/namespaces/inkscape"
   xmlns:sodipodi="http://sodipodi.sourceforge.net/DTD/sodipodi-0.dtd"
   xmlns="http://www.w3.org/2000/svg"
   xmlns:svg="http://www.w3.org/2000/svg"
   xmlns:rdf="http://www.w3.org/1999/02/22-rdf-syntax-ns#"
   xmlns:cc="http://creativecommons.org/ns#"
   xmlns:dc="http://purl.org/dc/elements/1.1/"><defs
     id="defs2" /><sodipodi:namedview
     id="base"
     pagecolor="#212121"
     bordercolor="#666666"
     borderopacity="1.0"
     inkscape:pageopacity="0.0"
     inkscape:pageshadow="2"
     inkscape:zoom="3.6203869"
     inkscape:cx="89.493198"
     inkscape:cy="28.864319"
     inkscape:document-units="mm"
     inkscape:current-layer="layer1"
     inkscape:document-rotation="0"
     showgrid="false"
     inkscape:snap-page="true"
     inkscape:snap-text-baseline="true"
     inkscape:snap-object-midpoints="true"
     inkscape:snap-midpoints="true"
     inkscape:snap-smooth-nodes="true"
     inkscape:snap-intersection-paths="true"
     inkscape:object-paths="true"
     inkscape:snap-bbox="true"
     inkscape:bbox-paths="true"
     inkscape:bbox-nodes="true"
     inkscape:snap-bbox-edge-midpoints="true"
     inkscape:snap-bbox-midpoints="true"
     inkscape:snap-center="true"
     inkscape:window-width="2256"
     inkscape:window-height="1398"
     inkscape:window-x="-11"
     inkscape:window-y="-11"
     inkscape:window-maximized="1"
     showguides="true"
     inkscape:guide-bbox="true"
     inkscape:snap-global="true"
     units="in"
     inkscape:showpageshadow="0"
     inkscape:pagecheckerboard="0"
     inkscape:deskcolor="#d1d1d1" /><metadata
     id="metadata5"><rdf:RDF><cc:Work
         rdf:about=""><dc:format>image/svg+xml</dc:format><dc:type
           rdf:resource="http://purl.org/dc/dcmitype/StillImage" /></cc:Work></rdf:RDF></metadata><g
     inkscape:label="Base Layer"
     inkscape:groupmode="layer"
     id="layer1"
     style="display:inline;opacity:1"
     transform="translate(-99.66479,-134.46704)"><g
       id="text3"
       style="font-size:10.046px;line-height:1.25;font-family:Arial;-inkscape-font-specification:Arial;letter-spacing:-0.403638px;word-spacing:0px;fill:none;stroke:#ffffff;stroke-width:0.65;stroke-dasharray:none;stroke-opacity:1"
       aria-label="baysidets"><path
         style="font-weight:bold;-inkscape-font-specification:'Arial Bold';fill:none;stroke:#ffffff;stroke-width:0.65;stroke-dasharray:none;stroke-opacity:1"
         d="m 116.87703,151.06927 v -7.19113 h 1.37838 v 2.58999 q 0.63769,-0.72598 1.51083,-0.72598 0.95162,0 1.57459,0.69164 0.62297,0.68674 0.62297,1.97683 0,1.33423 -0.63768,2.05531 -0.63278,0.72107 -1.54026,0.72107 -0.44638,0 -0.88295,-0.22074 -0.43166,-0.22564 -0.7456,-0.66221 v 0.76522 z m 1.36857,-2.71752 q 0,0.80937 0.25508,1.19689 0.35808,0.54939 0.95162,0.54939 0.45619,0 0.77503,-0.38752 0.32375,-0.39242 0.32375,-1.23122 0,-0.89276 -0.32375,-1.28518 -0.32374,-0.39733 -0.82899,-0.39733 -0.49543,0 -0.82408,0.38752 -0.32866,0.38261 -0.32866,1.16745 z m 5.45326,-0.90257 -1.25084,-0.22564 q 0.21092,-0.75541 0.72598,-1.1184 0.51505,-0.36299 1.53044,-0.36299 0.92219,0 1.37348,0.22074 0.45128,0.21583 0.63278,0.55429 0.1864,0.33356 0.1864,1.23122 l -0.0147,1.60893 q 0,0.68674 0.0638,1.0154 0.0687,0.32374 0.25017,0.69654 h -1.36366 q -0.054,-0.13734 -0.13245,-0.40713 -0.0343,-0.12263 -0.049,-0.16188 -0.35318,0.34337 -0.75541,0.51506 -0.40223,0.17168 -0.85842,0.17168 -0.80447,0 -1.27047,-0.43657 -0.4611,-0.43657 -0.4611,-1.10368 0,-0.44148 0.21093,-0.78485 0.21093,-0.34827 0.58863,-0.52977 0.38262,-0.1864 1.09879,-0.32375 0.96633,-0.18149 1.33913,-0.33846 v -0.13735 q 0,-0.39732 -0.19621,-0.5641 -0.19621,-0.17169 -0.74069,-0.17169 -0.3679,0 -0.57392,0.14716 -0.20602,0.14225 -0.33356,0.50524 z m 1.84438,1.11841 q -0.26488,0.0883 -0.8388,0.21092 -0.57391,0.12263 -0.7505,0.24036 -0.26979,0.19131 -0.26979,0.48562 0,0.28941 0.21583,0.50034 0.21583,0.21093 0.54939,0.21093 0.3728,0 0.71126,-0.24527 0.25017,-0.1864 0.32866,-0.45619 0.054,-0.17659 0.054,-0.67202 z m 1.65658,-2.70772 h 1.46668 l 1.24594,3.69858 1.21651,-3.69858 h 1.42743 l -1.83948,5.01319 -0.32865,0.90748 q -0.1815,0.45619 -0.34828,0.69655 -0.16187,0.24036 -0.3777,0.38751 -0.21093,0.15207 -0.52487,0.23546 -0.30903,0.0834 -0.70145,0.0834 -0.39733,0 -0.77994,-0.0834 l -0.12263,-1.07916 q 0.32375,0.0638 0.58373,0.0638 0.48071,0 0.71126,-0.28451 0.23055,-0.2796 0.35318,-0.71617 z m 5.35025,3.72311 1.38329,-0.21093 q 0.0883,0.40223 0.35808,0.61316 0.26979,0.20602 0.75541,0.20602 0.53468,0 0.80447,-0.19621 0.18149,-0.13735 0.18149,-0.3679 0,-0.15696 -0.0981,-0.25997 -0.10301,-0.0981 -0.4611,-0.1815 -1.66779,-0.3679 -2.11417,-0.67202 -0.61807,-0.42186 -0.61807,-1.17236 0,-0.67693 0.53468,-1.13803 0.53467,-0.46109 1.65798,-0.46109 1.06935,0 1.58931,0.34827 0.51996,0.34828 0.71617,1.03011 l -1.2999,0.24036 q -0.0834,-0.30413 -0.31884,-0.466 -0.23055,-0.16188 -0.66221,-0.16188 -0.54449,0 -0.77994,0.15207 -0.15697,0.10791 -0.15697,0.2796 0,0.14716 0.13735,0.25017 0.1864,0.13734 1.28518,0.38751 1.10369,0.25017 1.54026,0.61316 0.43166,0.3679 0.43166,1.0252 0,0.71617 -0.59844,1.23123 -0.59845,0.51505 -1.77081,0.51505 -1.06444,0 -1.68741,-0.43166 -0.61807,-0.43167 -0.80937,-1.17236 z m 5.66909,-4.42946 v -1.27538 h 1.37838 v 1.27538 z m 0,5.91575 v -5.2094 h 1.37838 v 5.2094 z m 7.1652,0 h -1.28028 v -0.76522 q -0.31884,0.44638 -0.75541,0.66712 -0.43167,0.21583 -0.87314,0.21583 -0.89767,0 -1.54026,-0.72107 -0.63768,-0.72598 -0.63768,-2.02098 0,-1.32442 0.62297,-2.01116 0.62297,-0.69164 1.57459,-0.69164 0.87314,0 1.51083,0.72598 v -2.58999 h 1.37838 z m -3.67896,-2.71752 q 0,0.8339 0.23055,1.2067 0.33356,0.53958 0.932,0.53958 0.47581,0 0.80937,-0.40223 0.33356,-0.40714 0.33356,-1.2116 0,-0.89767 -0.32375,-1.29009 -0.32375,-0.39733 -0.82899,-0.39733 -0.49053,0 -0.82408,0.39242 -0.32866,0.38752 -0.32866,1.16255 z m 7.65082,1.05954 1.37348,0.23055 q -0.26489,0.75541 -0.8388,1.15274 -0.56901,0.39242 -1.42744,0.39242 -1.35876,0 -2.01116,-0.88785 -0.51505,-0.71127 -0.51505,-1.79533 0,-1.295 0.67692,-2.02588 0.67693,-0.73579 1.71195,-0.73579 1.16254,0 1.83457,0.77013 0.67202,0.76522 0.64259,2.34962 h -3.45331 q 0.0147,0.61316 0.33355,0.95653 0.31885,0.33846 0.79466,0.33846 0.32375,0 0.54448,-0.17659 0.22074,-0.17659 0.33356,-0.56901 z m 0.0785,-1.3931 q -0.0147,-0.59844 -0.30904,-0.90747 -0.29431,-0.31394 -0.71617,-0.31394 -0.45128,0 -0.7456,0.32866 -0.29431,0.32865 -0.28941,0.89275 z"
         id="path3" /><path
         style="font-weight:bold;-inkscape-font-specification:'Arial Bold';fill:none;stroke:#ffffff;stroke-width:0.65;stroke-dasharray:none;stroke-opacity:1"
         d="m 153.91182,145.85987 v 1.09879 H 152.97 v 2.09945 q 0,0.63769 0.0245,0.7456 0.0294,0.10302 0.12263,0.17169 0.0981,0.0687 0.23545,0.0687 0.19131,0 0.5543,-0.13244 l 0.11773,1.06935 q -0.48072,0.20602 -1.08897,0.20602 -0.3728,0 -0.67203,-0.12263 -0.29922,-0.12754 -0.44147,-0.32375 -0.13735,-0.20111 -0.19131,-0.53958 -0.0441,-0.24036 -0.0441,-0.97124 v -2.27114 h -0.63278 v -1.09879 h 0.63278 v -1.03501 L 152.97,144.0204 v 1.83947 z m 0.0673,3.72311 1.38328,-0.21093 q 0.0883,0.40223 0.35809,0.61316 0.26979,0.20602 0.75541,0.20602 0.53468,0 0.80447,-0.19621 0.18149,-0.13735 0.18149,-0.3679 0,-0.15696 -0.0981,-0.25997 -0.10301,-0.0981 -0.46109,-0.1815 -1.66779,-0.3679 -2.11417,-0.67202 -0.61807,-0.42186 -0.61807,-1.17236 0,-0.67693 0.53468,-1.13803 0.53467,-0.46109 1.65798,-0.46109 1.06935,0 1.58931,0.34827 0.51996,0.34828 0.71617,1.03011 l -1.2999,0.24036 q -0.0834,-0.30413 -0.31884,-0.466 -0.23055,-0.16188 -0.66221,-0.16188 -0.54449,0 -0.77994,0.15207 -0.15697,0.10791 -0.15697,0.2796 0,0.14716 0.13735,0.25017 0.1864,0.13734 1.28518,0.38751 1.10368,0.25017 1.54025,0.61316 0.43167,0.3679 0.43167,1.0252 0,0.71617 -0.59845,1.23123 -0.59844,0.51505 -1.7708,0.51505 -1.06444,0 -1.68741,-0.43166 -0.61807,-0.43167 -0.80937,-1.17236 z"
         id="path10" /></g><path
       style="color:#000000;fill:none;fill-opacity:1;stroke:#ffffff;stroke-width:1.2;stroke-linecap:round;stroke-linejoin:round;stroke-dasharray:none;stroke-opacity:1"
       d="m 103.49097,150.71287 c 0,2.8064 1.98671,4.02873 3.66559,4.02873 3.45648,0 4.54429,-5.47375 0.13207,-7.31283 9.37765,1.37866 6.8502,11.31564 -0.40778,11.31564 -4.02747,0 -6.61606,-2.02984 -6.61606,-7.63716 0,-5.01259 3.67979,-7.04452 3.55901,-10.00115 -0.0988,-2.41841 -0.93138,-4.17474 -2.51556,-6.03925 2.47988,1.54749 4.39829,3.58225 4.39829,6.55557 0,3.41292 -2.21556,4.48598 -2.21556,9.09045 z"
       id="path9" /><path
       style="color:#000000;fill:#ff1a39;fill-opacity:1;stroke:none;stroke-width:0.574238;stroke-linecap:round;stroke-linejoin:round;stroke-dasharray:none;stroke-opacity:1"
       d="m 103.49097,150.71287 c 0,2.8064 1.98671,4.02873 3.66559,4.02873 3.45648,0 4.54429,-5.47375 0.13207,-7.31283 9.37765,1.37866 6.8502,11.31564 -0.40778,11.31564 -4.02747,0 -6.61606,-2.02984 -6.61606,-7.63716 0,-5.01259 3.67979,-7.04452 3.55901,-10.00115 -0.0988,-2.41841 -0.93138,-4.17474 -2.51556,-6.03925 2.47988,1.54749 4.39829,3.58225 4.39829,6.55557 0,3.41292 -2.21556,4.48598 -2.21556,9.09045 z"
       id="path6" /><path
       style="color:#000000;fill:#f20d2c;fill-opacity:1;stroke:none;stroke-width:0.574238;stroke-linecap:round;stroke-linejoin:round;stroke-dasharray:none;stroke-opacity:1"
       d="m 106.87606,157.1689 c 3.38506,0 8.93885,-6.19468 0.41265,-9.74013 9.37765,1.37866 6.85019,11.31564 -0.40778,11.31564 -4.02747,0 -6.61607,-2.02984 -6.61607,-7.63716 0,-5.01259 3.6798,-7.04452 3.55901,-10.00115 -0.0987,-2.41841 -0.89638,-4.05235 -2.51555,-6.03925 2.22024,1.98024 3.62399,3.51441 3.62399,6.48773 0,2.96789 -2.97015,4.77846 -2.97015,9.69068 0,3.90944 2.00784,5.92364 4.9139,5.92364 z"
       id="path8"
       sodipodi:nodetypes="scssscsss" /><path
       style="color:#000000;fill:#d1102b;fill-opacity:1;stroke:none;stroke-width:0.574238;stroke-linecap:round;stroke-linejoin:round;stroke-dasharray:none;stroke-opacity:1"
       d="m 106.91316,157.71294 c 4.22585,0 9.55964,-7.21618 0.37555,-10.28417 9.37765,1.37866 6.85019,11.31564 -0.40778,11.31564 -4.02747,0 -6.61607,-2.02984 -6.61607,-7.63716 0,-5.01259 3.6798,-7.04452 3.55901,-10.00115 -0.0987,-2.41841 -0.93137,-4.17474 -2.51555,-6.03925 1.97294,1.84422 3.24423,3.40737 3.24423,6.38069 0,3.41292 -3.28708,4.62377 -3.28713,9.90564 -4e-5,4.19385 2.18528,6.35976 5.64774,6.35976 z"
       id="path4"
       sodipodi:nodetypes="scssscsss" /><path
       style="color:#000000;fill:#b50e25;fill-opacity:1;stroke:none;stroke-width:0.574238;stroke-linecap:round;stroke-linejoin:round;stroke-dasharray:none;stroke-opacity:1"
       d="m 106.87606,158.14568 c 5.47463,0 9.56943,-8.11114 0.41265,-10.71691 9.37765,1.37866 6.85019,11.31564 -0.40778,11.31564 -4.02747,0 -6.61607,-2.02984 -6.61607,-7.63716 0,-5.01259 3.6798,-7.04452 3.55901,-10.00115 -0.0987,-2.41841 -0.89638,-4.05235 -2.51555,-6.03925 1.97294,1.84422 2.94696,3.40737 2.94696,6.38069 0,3.05445 -3.41827,4.8855 -3.41827,9.74826 0,4.19385 1.84708,6.94988 6.03905,6.94988 z"
       id="path7"
       sodipodi:nodetypes="scssscsss" /><path
       style="color:#000000;fill:none;fill-opacity:1;stroke:#000000;stroke-width:0.574238;stroke-linecap:round;stroke-linejoin:round;stroke-dasharray:none;stroke-opacity:1"
       d="m 103.49097,150.71287 c 0,2.8064 1.98671,4.02873 3.66559,4.02873 3.45648,0 4.54429,-5.47375 0.13207,-7.31283 9.37765,1.37866 6.8502,11.31564 -0.40778,11.31564 -4.02747,0 -6.61606,-2.02984 -6.61606,-7.63716 0,-5.01259 3.67979,-7.04452 3.55901,-10.00115 -0.0988,-2.41841 -0.93138,-4.17474 -2.51556,-6.03925 2.47988,1.54749 4.39829,3.58225 4.39829,6.55557 0,3.41292 -2.21556,4.48598 -2.21556,9.09045 z"
       id="path5" /><text
       xml:space="preserve"
       style="font-size:10.046px;line-height:1.25;font-family:Arial;-inkscape-font-specification:Arial;letter-spacing:-0.403638px;word-spacing:0px;stroke-width:0.269091"
       x="116.21482"
       y="151.06927"
       id="text9"><tspan
         sodipodi:role="line"
         id="tspan9"
         style="font-style:normal;font-variant:normal;font-weight:bold;font-stretch:normal;font-family:Arial;-inkscape-font-specification:'Arial Bold';letter-spacing:-0.403638px;stroke-width:0.269091"
         x="116.21482"
         y="151.06927">bayside<tspan
   style="fill:#f20d2c;fill-opacity:1"
   id="tspan1">ts</tspan></tspan></text></g></svg>
