<?xml version="1.0" encoding="UTF-8" standalone="no"?>
<!-- Created with Inkscape (http://www.inkscape.org/) -->

<svg
   width="327.66888"
   height="102.85043"
   viewBox="0 0 86.695724 27.212506"
   version="1.1"
   id="svg5"
   inkscape:version="1.2.2 (b0a8486541, 2022-12-01)"
   sodipodi:docname="logo-long.svg"
   xmlns:inkscape="http://www.inkscape.org/namespaces/inkscape"
   xmlns:sodipodi="http://sodipodi.sourceforge.net/DTD/sodipodi-0.dtd"
   xmlns="http://www.w3.org/2000/svg"
   xmlns:svg="http://www.w3.org/2000/svg">
  <sodipodi:namedview
     id="namedview7"
     pagecolor="#ffffff"
     bordercolor="#eeeeee"
     borderopacity="1"
     inkscape:showpageshadow="0"
     inkscape:pageopacity="0"
     inkscape:pagecheckerboard="0"
     inkscape:deskcolor="#505050"
     inkscape:document-units="mm"
     showgrid="false"
     showguides="true"
     inkscape:zoom="2.8284271"
     inkscape:cx="184.90842"
     inkscape:cy="53.209785"
     inkscape:window-width="1920"
     inkscape:window-height="1015"
     inkscape:window-x="0"
     inkscape:window-y="0"
     inkscape:window-maximized="1"
     inkscape:current-layer="layer1" />
  <defs
     id="defs2">
    <inkscape:path-effect
       effect="fillet_chamfer"
       id="path-effect4251"
       is_visible="true"
       lpeversion="1"
       nodesatellites_param="F,0,0,1,0,3.96875,0,1 @ F,0,0,1,0,3.96875,0,1 @ F,0,0,1,0,3.96875,0,1 @ F,0,0,1,0,3.96875,0,1"
       unit="px"
       method="auto"
       mode="F"
       radius="15"
       chamfer_steps="1"
       flexible="false"
       use_knot_distance="true"
       apply_no_radius="true"
       apply_with_radius="true"
       only_selected="false"
       hide_knots="false" />
  </defs>
  <g
     inkscape:label="Layer 1"
     inkscape:groupmode="layer"
     id="layer1"
     transform="translate(-66.065757,-12.617008)">
    <path
       id="rect4248"
       style="fill:#ff1530;fill-opacity:1;stroke:none;stroke-width:0.349999;stroke-dasharray:none;stroke-opacity:1"
       d="M 66.065757,16.585758 V 35.86055 a 3.96875,3.96875 45 0 0 3.96875,3.96875 h 10.639661 a 3.96875,3.96875 135 0 0 3.96875,-3.96875 l 0,-19.274792 a 3.96875,3.96875 45 0 0 -3.96875,-3.96875 H 70.034507 a 3.96875,3.96875 135 0 0 -3.96875,3.96875 z"
       inkscape:path-effect="#path-effect4251"
       inkscape:original-d="M 66.065757,12.617008 V 39.8293 H 84.642918 V 12.617008 Z" />
    <path
       id="path4022"
       style="color:#000000;fill:#ffffff;stroke:none;stroke-width:0.290927;stroke-dasharray:none;stroke-opacity:1"
       d="m 72.077839,15.986828 c -1.231642,0 -2.243791,1.010605 -2.243791,2.242241 0,0.864657 0.516565,1.599814 1.240234,1.974556 v 0.496094 h -1.638659 v 1.394747 h 1.636592 c -4e-5,0.134694 7.36e-4,2.493335 -0.05271,5.353161 -0.05405,2.891999 -0.167717,6.103387 -0.377238,7.62124 h -1.206644 v 1.39268 h 3.650423 v -1.781286 c 0.327514,0.505479 0.68853,0.980526 1.128613,1.240234 0.572027,0.33026 1.564313,0.541052 2.355412,0.541052 1.253627,0 2.721137,-0.544496 3.521747,-1.66243 0.7912,-1.10279 1.18133,-2.53122 1.18133,-4.271058 0,-1.740537 -0.38917,-3.16752 -1.18133,-4.263822 -0.78472,-1.095744 -1.82682,-1.660364 -3.08043,-1.660364 -0.218087,0.0029 -0.605131,0.03721 -0.605131,0.03721 l -0.720887,0.720886 0.726571,0.728638 h 0.06253 c 0.828733,0 1.424067,0.346981 1.849497,1.080038 0.4317,0.732557 0.66043,1.853523 0.66043,3.357417 0,1.505807 -0.0889,2.22112 -0.52555,2.968811 h -0.002 v 0.0016 c -0.42917,0.746103 -1.159638,1.396814 -1.952852,1.396814 -0.395662,0 -0.981665,-0.155464 -1.514119,-0.453203 -0.532455,-0.297737 -1.011607,-0.734245 -1.236101,-1.283125 -0.317663,-0.776653 -0.499077,-2.615835 -0.583943,-4.726844 -0.0829,-2.062079 -0.08212,-4.387414 -0.08217,-6.337597 h 1.636593 v -1.394747 h -1.63866 v -0.496146 c 0.72342,-0.374951 1.238684,-1.110299 1.238684,-1.974556 0,-1.231823 -1.014736,-2.242242 -2.246374,-2.242241 z m 0,1.545125 c 0.397454,0 0.699182,0.300026 0.699182,0.697116 0,0.397096 -0.302088,0.699182 -0.699182,0.699182 -0.397087,0 -0.695048,-0.301637 -0.695048,-0.699182 0,-0.39754 0.297601,-0.697116 0.695048,-0.697116 z"
       sodipodi:nodetypes="sscccccsccccccscscccccscscccsssscccccssssssss" />
    <g
       id="g5672"
       transform="matrix(0.94487855,0,0,0.94487855,4.9282849,2.1954605)">
      <path
         id="path4104"
         style="font-style:normal;font-variant:normal;font-weight:normal;font-stretch:normal;font-size:26.4786px;font-family:'DejaVu Serif';-inkscape-font-specification:'DejaVu Serif';text-align:center;text-anchor:middle;fill:#1a1a1a;fill-opacity:1;stroke:none;stroke-width:3.37747;stroke-dasharray:none;stroke-opacity:1"
         d="m 132.49828,11.54267 c -0.3002,0 -0.55486,0.118831 -0.7643,0.356199 -0.20944,0.237368 -0.31393,0.516403 -0.31393,0.837548 0,0.328127 0.10449,0.607581 0.31393,0.837966 0.20944,0.230387 0.4641,0.345316 0.7643,0.345316 0.29322,0 0.54133,-0.114929 0.74379,-0.345316 0.20944,-0.230385 0.31392,-0.509839 0.31392,-0.837966 0,-0.321145 -0.10448,-0.60018 -0.31392,-0.837548 -0.20944,-0.237368 -0.45755,-0.356199 -0.74379,-0.356199 z m -2.25146,4.649418 v 1.1205 h 1.65458 v 8.901619 h -1.65458 v 1.110035 h 5.02696 v -1.110035 h -1.63366 V 16.192088 Z" />
      <path
         style="font-style:normal;font-variant:normal;font-weight:normal;font-stretch:normal;font-size:26.4786px;font-family:'DejaVu Serif';-inkscape-font-specification:'DejaVu Serif';text-align:center;text-anchor:middle;fill:#1a1a1a;fill-opacity:1;stroke:none;stroke-width:3.37747;stroke-dasharray:none;stroke-opacity:1"
         d="m 110.2369,16.192088 v 1.1205 h 1.14143 l 3.73862,10.200005 -0.65966,1.853824 c -0.23737,0.642292 -0.4611,1.068021 -0.67054,1.277464 -0.20945,0.216424 -0.485,0.324386 -0.82708,0.324386 -0.377,0 -0.65645,-0.104479 -0.83798,-0.313921 -0.18151,-0.202461 -0.28947,-0.541119 -0.32438,-1.01586 h -0.89029 v 2.125894 c 0.31416,0.104721 0.62845,0.18482 0.94261,0.240675 0.31417,0.05589 0.618,0.08413 0.91121,0.08413 0.69815,0 1.23922,-0.160625 1.6232,-0.481771 0.38398,-0.314164 0.72918,-0.904415 1.03636,-1.770114 l 4.59752,-12.524714 h 1.1205 v -1.1205 h -3.75955 v 1.1205 h 1.49763 l -2.81695,7.655129 -2.81736,-7.655129 h 1.60228 v -1.1205 z"
         id="path4102" />
      <path
         id="path4100"
         style="font-style:normal;font-variant:normal;font-weight:normal;font-stretch:normal;font-size:26.4786px;font-family:'DejaVu Serif';-inkscape-font-specification:'DejaVu Serif';text-align:center;text-anchor:middle;fill:#1a1a1a;fill-opacity:1;stroke:none;stroke-width:3.37747;stroke-dasharray:none;stroke-opacity:1"
         d="m 151.70287,15.888628 c -1.41723,0 -2.56207,0.537594 -3.43475,1.612732 -0.87267,1.075133 -1.30885,2.492463 -1.30885,4.251779 0,1.773281 0.44315,3.197155 1.32978,4.272296 0.88665,1.068151 2.06325,1.602263 3.52934,1.602263 1.21477,0 2.19202,-0.306898 2.93205,-0.921262 0.74701,-0.614364 1.26022,-1.532411 1.53948,-2.754157 h -1.39298 c -0.19548,0.87268 -0.53762,1.532168 -1.02633,1.978981 -0.48869,0.439823 -1.11335,0.659657 -1.87433,0.659657 -0.99136,0 -1.74181,-0.380452 -2.25146,-1.141429 -0.50964,-0.767959 -0.76471,-1.902349 -0.76471,-3.403349 v -0.08372 h 7.47724 c -0.0349,-1.975741 -0.45716,-3.480135 -1.267,-4.513384 -0.80984,-1.040229 -1.97252,-1.560408 -3.48748,-1.560407 z m 0,1.036785 c 0.85871,0 1.51513,0.331692 1.96893,0.99493 0.45379,0.656247 0.70148,1.633503 0.74336,2.932043 h -5.43505 c 0.10472,-1.291558 0.38417,-2.268814 0.83796,-2.932043 0.46078,-0.663238 1.08892,-0.99493 1.8848,-0.99493 z" />
      <path
         style="font-style:normal;font-variant:normal;font-weight:normal;font-stretch:normal;font-size:26.4786px;font-family:'DejaVu Serif';-inkscape-font-specification:'DejaVu Serif';text-align:center;text-anchor:middle;fill:#1a1a1a;fill-opacity:1;stroke:none;stroke-width:3.37747;stroke-dasharray:none;stroke-opacity:1"
         d="m 125.3789,15.888628 c -1.18685,0 -2.11882,0.289483 -2.79602,0.86894 -0.67021,0.579457 -1.00538,1.379086 -1.00538,2.398379 0,0.712104 0.19196,1.298451 0.57594,1.759228 0.39096,0.460777 1.01562,0.844703 1.87434,1.151893 l 1.25694,0.471299 c 0.96344,0.342092 1.59158,0.663335 1.8848,0.963535 0.3002,0.3002 0.45038,0.694584 0.45038,1.183288 0,0.621346 -0.20591,1.096249 -0.61781,1.424377 -0.40492,0.321146 -0.99475,0.48135 -1.76969,0.48135 -0.87267,0 -1.53258,-0.205903 -1.97939,-0.617806 -0.43983,-0.411903 -0.67011,-1.033079 -0.69105,-1.863868 h -0.99493 v 2.597193 c 0.61437,0.307182 1.22858,0.537465 1.84294,0.691052 0.61436,0.153595 1.24641,0.23021 1.89568,0.23021 1.2776,0 2.27574,-0.299933 2.99484,-0.900333 0.72606,-0.607382 1.0891,-1.438357 1.0891,-2.492552 0,-0.774941 -0.20939,-1.406565 -0.62827,-1.895262 -0.4119,-0.495678 -1.0927,-0.907898 -2.04218,-1.236025 l -1.3821,-0.470886 c -0.84474,-0.293218 -1.4102,-0.57964 -1.69644,-0.858895 -0.27926,-0.286236 -0.41898,-0.663205 -0.41898,-1.130964 0,-0.572472 0.185,-1.001684 0.55502,-1.28792 0.37699,-0.286237 0.92852,-0.429448 1.65458,-0.429448 0.74003,0 1.3229,0.202412 1.74877,0.607334 0.42586,0.404929 0.65266,0.966896 0.68058,1.685981 h 0.99492 v -2.429349 c -0.62134,-0.293219 -1.2251,-0.516949 -1.81154,-0.67054 -0.57946,-0.153591 -1.13446,-0.230211 -1.66505,-0.230211 z"
         id="path4098" />
      <path
         id="path4096"
         style="font-style:normal;font-variant:normal;font-weight:normal;font-stretch:normal;font-size:26.4786px;font-family:'DejaVu Serif';-inkscape-font-specification:'DejaVu Serif';text-align:center;text-anchor:middle;fill:#1a1a1a;fill-opacity:1;stroke:none;stroke-width:3.37747;stroke-dasharray:none;stroke-opacity:1"
         d="m 105.28193,15.888628 c -0.53757,0 -1.09257,0.07314 -1.66505,0.219747 -0.56549,0.139627 -1.14836,0.352492 -1.74876,0.638729 v 2.251879 h 0.89029 c 0.10472,-0.684176 0.35937,-1.200873 0.7643,-1.549947 0.40492,-0.349074 0.95644,-0.523623 1.65458,-0.523623 0.83079,0 1.47676,0.233758 1.93754,0.701517 0.46776,0.460769 0.70151,1.113712 0.70151,1.958465 v 0.764297 h -2.43981 c -1.36138,0 -2.41567,0.317761 -3.16267,0.95307 -0.74702,0.63531 -1.1205,1.528977 -1.1205,2.680911 0,1.117025 0.32472,2.003726 0.974,2.659982 0.65625,0.656247 1.53905,0.984043 2.64909,0.984043 0.6772,0 1.26745,-0.121893 1.77011,-0.366245 0.50266,-0.244344 0.9458,-0.624797 1.32978,-1.141421 v 1.20421 h 3.27778 v -1.110035 h -1.54994 v -5.843585 c 0,-1.459116 -0.36304,-2.569135 -1.08911,-3.330104 -0.72607,-0.767954 -1.78383,-1.15189 -3.17314,-1.15189 z m 0.29342,5.581564 h 2.24099 v 2.356104 c 0,0.795879 -0.22331,1.441856 -0.67012,1.937534 -0.43983,0.495679 -1.02269,0.743369 -1.74876,0.743369 -0.72607,0 -1.30587,-0.226793 -1.73872,-0.68058 -0.42587,-0.453795 -0.63874,-1.068013 -0.63874,-1.842946 0,-0.851734 0.20939,-1.48378 0.62828,-1.895683 0.42586,-0.411903 1.06835,-0.617798 1.92707,-0.617798 z" />
      <path
         id="path4092"
         style="font-style:normal;font-variant:normal;font-weight:normal;font-stretch:normal;font-size:26.4786px;font-family:'DejaVu Serif';-inkscape-font-specification:'DejaVu Serif';text-align:center;text-anchor:middle;fill:#1a1a1a;fill-opacity:1;stroke:none;stroke-width:3.37747;stroke-dasharray:none;stroke-opacity:1"
         d="m 141.49365,11.02951 v 1.110033 h 1.64413 v 5.791265 c -0.3421,-0.698148 -0.7752,-1.211357 -1.29881,-1.539484 -0.52361,-0.335106 -1.17265,-0.502696 -1.94759,-0.502696 -1.2357,0 -2.24471,0.541077 -3.02664,1.623197 -0.77493,1.082115 -1.16235,2.495962 -1.16235,4.241314 0,1.745353 0.3909,3.162262 1.17282,4.251367 0.78191,1.082114 1.78745,1.623192 3.01617,1.623192 0.77494,0 1.42398,-0.164108 1.94759,-0.492228 0.52361,-0.33511 0.95671,-0.851386 1.29881,-1.549526 v 1.738298 h 3.39288 v -1.110035 h -1.65459 V 11.02951 Z m -1.05772,6.063325 c 0.87967,0 1.5496,0.352597 2.01037,1.057718 0.46078,0.705121 0.69148,1.724585 0.69148,3.058034 v 1.09957 c 0,1.340431 -0.2307,2.362956 -0.69148,3.068077 -0.46077,0.698148 -1.1307,1.047254 -2.01037,1.047254 -0.89361,0 -1.57093,-0.394384 -2.03171,-1.18328 -0.45379,-0.788905 -0.68058,-1.951159 -0.68058,-3.487069 0,-1.542891 0.22679,-2.705566 0.68058,-3.487481 0.46078,-0.781923 1.1381,-1.172823 2.03171,-1.172823 z" />
      <path
         id="text2331"
         style="font-style:normal;font-variant:normal;font-weight:normal;font-stretch:normal;font-size:26.4786px;font-family:'DejaVu Serif';-inkscape-font-specification:'DejaVu Serif';text-align:center;text-anchor:middle;fill:#1a1a1a;fill-opacity:1;stroke:none;stroke-width:3.37747;stroke-dasharray:none;stroke-opacity:1"
         d="m 89.407851,11.02951 v 1.110033 h 1.66548 v 14.074664 h -1.66548 v 1.110035 h 3.40377 v -1.738298 c 0.3421,0.69814 0.77478,1.214416 1.29839,1.549526 0.52361,0.32812 1.17307,0.492228 1.948,0.492228 1.22874,0 2.23036,-0.541078 3.0053,-1.623192 0.78192,-1.089105 1.172819,-2.506014 1.172819,-4.251367 0,-1.745352 -0.390899,-3.159199 -1.172819,-4.241314 -0.77494,-1.08212 -1.77656,-1.623197 -3.0053,-1.623197 -0.77493,0 -1.42439,0.16759 -1.948,0.502696 -0.52361,0.328127 -0.95629,0.841336 -1.29839,1.539484 V 11.02951 Z m 6.10561,6.063325 c 0.88664,0 1.55658,0.3909 2.01036,1.172823 0.46078,0.781915 0.69148,1.94459 0.69148,3.487481 0,1.53591 -0.2307,2.698164 -0.69148,3.487069 -0.45378,0.788896 -1.12372,1.18328 -2.01036,1.18328 -0.87965,0 -1.55001,-0.349106 -2.01078,-1.047254 -0.46078,-0.705121 -0.69106,-1.727646 -0.69106,-3.068077 v -1.09957 c 0,-1.333449 0.23028,-2.352913 0.69106,-3.058034 0.46077,-0.705121 1.13113,-1.057718 2.01078,-1.057718 z" />
    </g>
    <text
       xml:space="preserve"
       style="font-style:normal;font-variant:normal;font-weight:normal;font-stretch:semi-condensed;font-size:5.82745px;font-family:'DejaVu Serif';-inkscape-font-specification:'DejaVu Serif Semi-Condensed';text-align:center;text-anchor:middle;fill:#1a1a1a;fill-opacity:1;stroke:none;stroke-width:0.0802993;stroke-dasharray:none;stroke-opacity:1"
       x="121.16852"
       y="39.758381"
       id="text4188"><tspan
         sodipodi:role="line"
         id="tspan4186"
         style="font-style:normal;font-variant:normal;font-weight:normal;font-stretch:normal;font-family:Arial;-inkscape-font-specification:Arial;fill:#1a1a1a;stroke-width:0.0802996"
         x="121.16852"
         y="39.758381">TECHNICAL SERVICES</tspan></text>
    <path
       style="fill:none;stroke:#1a1a1a;stroke-width:0.5;stroke-dasharray:none"
       d="M 89.407758,34.015839 H 152.76148"
       id="path5300" />
  </g>
</svg>
